<svg version="1.1" 
    xmlns="http://www.w3.org/2000/svg"
    viewBox="0 0 226 226"
    preserveAspectRatio="xMinYMin meet"
>
    <path d="M135.52937,13.4982c-0.21897,0.00475 -0.4373,0.0254 -0.65328,0.0618h-98.71609v198.88h128.23734l-7.85703,-9.04h-111.34031v-180.8h85.88v49.72h49.72v58.76h9.04v-65.15156l-50.66461,-50.66461c-0.24363,-0.31886 -0.52864,-0.60387 -0.8475,-0.8475l-0.85633,-0.85633h-1.17414c-0.25379,-0.04242 -0.51074,-0.06309 -0.76805,-0.0618zM140.12,28.99156l34.28844,34.28844h-34.28844zM72.32,94.92v9.04h81.36v-9.04zM72.32,122.04v9.04h58.76v-9.04zM171.76,140.12v40.68h-22.6l39.29398,45.21766l37.54602,-45.21766h-22.6v-40.68zM72.32,149.16v9.04h81.36v-9.04zM180.8,149.16h13.56v40.68h13.56l-19.46602,22.39695l-19.45719,-22.39695h11.8032z">
    </path>
</svg>