<svg xmlns="http://www.w3.org/2000/svg" x="0px" y="0px"
width="50" height="50"
viewBox="0 0 226 226"
style=" fill:#000000;">
    <g fill="none" fill-rule="nonzero" stroke="none" stroke-width="1" stroke-linecap="butt" stroke-linejoin="miter" stroke-miterlimit="10" stroke-dasharray="" stroke-dashoffset="0" font-family="none" font-weight="none" font-size="none" text-anchor="none" style="mix-blend-mode: normal">
        <path d="M0,226v-226h226v226z" fill="none"></path>
        <g fill="#000000">
            <path d="M31.64,18.08c-7.43745,0 -13.56,6.12255 -13.56,13.56v162.72c0,7.43746 6.12255,13.56 13.56,13.56h162.72c7.43746,0 13.56,-6.12254 13.56,-13.56v-134.69953c-0.00023,-1.1987 -0.47656,-2.34823 -1.32422,-3.19578l-37.06047,-37.06047c-0.84755,-0.84766 -1.99708,-1.32399 -3.19578,-1.32422zM31.64,27.12h22.6v54.24c0,7.43746 6.12254,13.56 13.56,13.56h85.88c7.43746,0 13.56,-6.12254 13.56,-13.56v-51.46797l31.64,31.64v132.82797c0,2.50654 -2.01346,4.52 -4.52,4.52h-22.6v-67.8c0,-7.43746 -6.12254,-13.56 -13.56,-13.56h-90.4c-7.43746,0 -13.56,6.12254 -13.56,13.56v67.8h-22.6c-2.50655,0 -4.52,-2.01346 -4.52,-4.52v-162.72c0,-2.50655 2.01345,-4.52 4.52,-4.52zM63.28,27.12h94.92v54.24c0,2.50654 -2.01346,4.52 -4.52,4.52h-85.88c-2.50654,0 -4.52,-2.01346 -4.52,-4.52zM131.08,36.16c-2.49622,0.00025 -4.51975,2.02378 -4.52,4.52v31.64c0.00025,2.49622 2.02378,4.51975 4.52,4.52h13.56c2.49622,-0.00025 4.51975,-2.02378 4.52,-4.52v-31.64c-0.00025,-2.49622 -2.02378,-4.51975 -4.52,-4.52zM135.6,45.2h4.52v22.6h-4.52zM67.8,126.56h90.4c2.50654,0 4.52,2.01346 4.52,4.52v67.8h-99.44v-67.8c0,-2.50654 2.01346,-4.52 4.52,-4.52zM36.16,180.8v9.04h9.04v-9.04zM180.8,180.8v9.04h9.04v-9.04z"></path>
        </g>
    </g>
</svg>